<svg id="Group_44283" data-name="Group 44283" xmlns="http://www.w3.org/2000/svg" xmlns:xlink="http://www.w3.org/1999/xlink" width="111.33" height="46.78" viewBox="0 0 111.33 46.78">
  <defs>
    <clipPath id="clip-path">
      <rect id="Rectangle_20505" data-name="Rectangle 20505" width="111.33" height="46.78" fill="none"/>
    </clipPath>
  </defs>
  <g id="Group_44283-2" data-name="Group 44283" clip-path="url(#clip-path)">
    <path id="Path_84427" data-name="Path 84427" d="M265.871,46.549h-16.96a.645.645,0,0,0-.646.644v1.554a.645.645,0,0,0,.646.644h11.818v8.319a14.18,14.18,0,0,0-1.429-1.749,7.9,7.9,0,0,0-5.641-2.73,4.812,4.812,0,0,0-3.983,2.234,6.945,6.945,0,0,0-1.4,3.855,7.9,7.9,0,0,0,1.219,4.541,5.683,5.683,0,0,0,4.961,2.471,3.966,3.966,0,0,0,4.22-3.637,3.147,3.147,0,0,0-1.737-2.84l-1.106-.625V60.5a1.355,1.355,0,0,1-.034.254,1.431,1.431,0,0,0-.028.16,2.044,2.044,0,0,1-1.8,1.172,2.759,2.759,0,0,1-1.949-.783,1.858,1.858,0,0,1-.435-1.328,2.731,2.731,0,0,1,.639-1.638,2.106,2.106,0,0,1,1.748-.865,5.793,5.793,0,0,1,5.058,2.933,9.129,9.129,0,0,1,1.662,5.038l.044,4.2,2.965,1.823a.644.644,0,0,0,.98-.55V49.391h1.192a.645.645,0,0,0,.645-.644V47.193a.645.645,0,0,0-.645-.644" transform="translate(-194.199 -36.412)" fill="#e20019"/>
    <path id="Path_84428" data-name="Path 84428" d="M369.69,45.005H345.452a.643.643,0,0,0-.643.644v2.83c-2.445-2.6-4.656-3.883-6.72-3.9a7.474,7.474,0,0,0-4.843,1.456,4.708,4.708,0,0,0-2.054,3.784c0,4.481,5.007,4.429,6.243,3.754a1.623,1.623,0,0,1,.83-.283,1.342,1.342,0,0,1,1.378,1.493c0,1.041-1.486,1.921-3.243,1.921a2.2,2.2,0,0,1-2-.852l-.781-1.184-.528,1.317a3.141,3.141,0,0,0-.284,1.188,3.749,3.749,0,0,0,1.489,2.843,4.926,4.926,0,0,0,3.235,1.162,5.442,5.442,0,0,0,4.509-2.074,6.221,6.221,0,0,0,1.283-3.914,4.67,4.67,0,0,0-.969-2.656,3.526,3.526,0,0,0-2.921-1.756,6,6,0,0,0-1.419.282c-.226.063-.569.157-.659.164a1.114,1.114,0,0,1-.725-.378,1.364,1.364,0,0,1-.4-.971c.041-1.112,1.022-2.22,2.823-2.22h.079a5.3,5.3,0,0,1,3.524,1.7,10.773,10.773,0,0,1,2.156,2.752v16.06l2.975,1.756a.646.646,0,0,0,.976-.553V47.848h4.556V62.979l3.629,1.455a.636.636,0,0,0,.24.047.645.645,0,0,0,.64-.563l.016-.105c.618-4.065,2.389-6.885,5.4-8.577-.009.233-.012.483-.012.753,0,.559.038,2.062.077,2.892.022.456.041.815.084,1.09h-.006a23.577,23.577,0,0,0,.746,5.778c.97,3.436,2.668,4.2,3.926,4.231h.082a2.3,2.3,0,0,0,1.667-.559,1.743,1.743,0,0,0,.5-1.29,3.148,3.148,0,0,0-.285-1.482l-.272-.5-.552.132a3.065,3.065,0,0,1-.907.143l-.106-.008a.489.489,0,0,1-.3-.072c-.2-.1-.571-.44-.863-1.531a12.84,12.84,0,0,1-.292-2.494c0-4.455.923-7.829,2.349-8.595l.073-.037a.645.645,0,0,0,.275-.882l-.041-.081a6.343,6.343,0,0,0-4.195-2.916l-.159-.042-.16.028c-1.571.275-3.5,1.37-5.886,3.348-.618.518-1.188,1.024-1.716,1.525V47.848H369.69a.644.644,0,0,0,.645-.644V45.649a.644.644,0,0,0-.645-.644" transform="translate(-259.067 -34.868)" fill="#e20019"/>
    <path id="Path_84429" data-name="Path 84429" d="M43.647,44.434c0,.606-.025,1.2-.075,1.8A21.823,21.823,0,1,1,12.088,24.9a18.688,18.688,0,0,0-1.567,2.35c-.04.067-.076.134-.113.2-.009.005-.013.01-.02.016q-.434.354-.848.735-.507.463-.977.963c-.072.074-.142.149-.209.226s-.14.151-.208.229c-.114.128-.228.259-.338.392-.225.265-.439.536-.646.814A18.92,18.92,0,0,0,4.908,34.71c-.06.136-.118.273-.173.41-.066.162-.129.326-.19.492-.032.083-.063.165-.091.25-.091.252-.174.507-.253.764-.053.166-.1.334-.148.5-.026.089-.051.179-.074.269-.042.169-.086.34-.126.511q-.19.822-.31,1.668c-.02.142-.038.284-.056.427-.013.112-.026.224-.037.336-.017.166-.031.333-.042.5a.282.282,0,0,1,0,.04c-.012.172-.022.346-.03.519-.01.282-.017.565-.017.851a19.06,19.06,0,0,0,35.769,9.162c.178-.326.349-.659.509-1a.03.03,0,0,0,.006-.01l.013-.028a18.939,18.939,0,0,0,1.806-7.506c.006-.207.012-.414.012-.622q0-.934-.091-1.842l.094.078c.3.243.58.5.858.757.267-.445.55-.877.853-1.3A22,22,0,0,1,43.56,42.5c.057.639.087,1.281.087,1.933" transform="translate(0 -19.477)" fill="#e20019"/>
    <path id="Path_84430" data-name="Path 84430" d="M53.525,51.411c0,.208-.006.415-.012.622a17.513,17.513,0,0,1-1.806,7.506.179.179,0,0,1-.013.028.03.03,0,0,1-.006.01c-.159.338-.33.671-.509,1a19.192,19.192,0,0,1-5.574,6.3,19.057,19.057,0,0,1-30.2-15.462c0-.286.007-.569.017-.851.009-.172.019-.347.031-.519a.279.279,0,0,0,0-.04c.012-.167.025-.335.042-.5.012-.112.024-.224.037-.336.018-.143.035-.287.056-.427q.119-.846.31-1.668c.039-.171.083-.342.126-.511.023-.089.05-.18.074-.269.047-.168.1-.336.148-.5.077-.257.162-.512.253-.764.028-.084.058-.167.091-.25q.092-.248.189-.491c.056-.138.114-.275.174-.41a18.914,18.914,0,0,1,2.255-3.887q.312-.417.647-.814c.109-.133.224-.264.338-.392.068-.078.135-.154.208-.23s.137-.151.209-.225q.469-.5.977-.963c.275-.254.558-.5.848-.735l.019-.016c-.038.069-.073.138-.111.207s-.081.152-.12.229a22.482,22.482,0,0,0-2.085,7.692c-.069.757-.108,1.526-.108,2.309,0,9.962,5.852,18.036,13.069,18.036.03,0,.058,0,.089,0,.222.012.446.021.673.021A11.516,11.516,0,0,0,45.389,53.581c0-.107,0-.212-.009-.317a11.477,11.477,0,0,0-3.543-8,19.028,19.028,0,0,1,11.5,4.228c.033.024.066.05.1.076.057.6.09,1.219.09,1.842" transform="translate(-12.054 -28.638)" fill="#f36b10"/>
    <path id="Path_84431" data-name="Path 84431" d="M84.783,13.159S69.22,10.224,61.909,23.75c0,0,1.292-9.359,12.413-13.609l-2.2-4.112S76.6,2,84.4,3.052Z" transform="translate(-48.427 -2.251)" fill="#e20019"/>
    <path id="Path_84432" data-name="Path 84432" d="M78.339,44.588s6.216-8.124,20.426-6.011l-.171-4.736a17.138,17.138,0,0,1,10.73,3.95l-5.916,8.931S99.346,42,90.933,41.878a27.716,27.716,0,0,0-12.595,2.71" transform="translate(-61.279 -26.47)" fill="#f36b10"/>
    <path id="Path_84433" data-name="Path 84433" d="M44.774,25.469S37.671,9.976,54.176,0l3.934,7.247a18.434,18.434,0,0,0-5.532,3.395c-3.1,2.685-6.487,7.231-7.8,14.828" transform="translate(-33.834 0.001)" fill="#f36b10"/>
    <path id="Path_84434" data-name="Path 84434" d="M79.033,133.588l.579.494a2.085,2.085,0,0,0,.566-.479.239.239,0,0,0-.009-.323h-1a.115.115,0,0,0-.1.039.4.4,0,0,0-.032.27" transform="translate(-61.816 -104.254)" fill="#e20019"/>
    <path id="Path_84435" data-name="Path 84435" d="M83.34,137.081l.363.436c-.016-.219-.038-.507-.054-.709a2.981,2.981,0,0,0-.309.273" transform="translate(-65.191 -107.015)" fill="#e20019"/>
    <path id="Path_84436" data-name="Path 84436" d="M78.714,136.809c-.016.2-.037.49-.054.709l.363-.436a3.007,3.007,0,0,0-.309-.273" transform="translate(-61.53 -107.016)" fill="#e20019"/>
    <path id="Path_84437" data-name="Path 84437" d="M92.894,99.339a.1.1,0,0,0-.029,0,10.347,10.347,0,0,0-1.255.758.043.043,0,0,0-.014.014s0,.023.03.056a.5.5,0,0,0,.21.139c.161-.1.943-.569,1.153-.741.051-.042.07-.085.055-.128a.171.171,0,0,0-.15-.1" transform="translate(-71.649 -77.706)" fill="#e20019"/>
    <path id="Path_84438" data-name="Path 84438" d="M99.752,97.676c-.007.044-.023.113-.047.22a4.751,4.751,0,0,0-.1.509.673.673,0,0,0,.3-.464.294.294,0,0,0-.018-.235.111.111,0,0,0-.088-.038.122.122,0,0,0-.044.007" transform="translate(-77.914 -76.399)" fill="#e20019"/>
    <path id="Path_84439" data-name="Path 84439" d="M99.724,98.427c.338,0,.9.7,1.031.916a4.835,4.835,0,0,1,.243,1.493c0,.02,0,.039,0,.058,1.519-.191,1.79-.515,1.973-1.552a3.366,3.366,0,0,0-.8-2.483,3.212,3.212,0,0,0-.737-.037c-.645,0-1.5.033-1.791.045a.83.83,0,0,0,.812.848c.114.022.2.037.212.124l.02.109-.111.011c-.09.009-.176.013-.255.013a.833.833,0,0,1-.769-.305,6.806,6.806,0,0,1-.682.67c0,.178-.012.833,0,1.12a1.215,1.215,0,0,0,.5.061c.079,0,.151,0,.2,0,.013-.218.044-.771.044-.983v-.1Z" transform="translate(-77.341 -75.737)" fill="#e20019"/>
    <path id="Path_84440" data-name="Path 84440" d="M93.614,103.231a.561.561,0,0,0,.046.468.766.766,0,0,0,.629.257c.04-.338.062-1,.072-1.349-.226.191-.609.514-.747.625" transform="translate(-73.203 -80.261)" fill="#e20019"/>
    <path id="Path_84441" data-name="Path 84441" d="M88.393,105.206a7.187,7.187,0,0,0,2.334,1.233V105.4a1.392,1.392,0,0,0-.4-.028c-.136,0-.291,0-.47-.011a2.062,2.062,0,0,1-1.325-.588l-.025-.029v-.038c0-.786-.316-.856-.505-.9a.222.222,0,0,0-.049-.005.466.466,0,0,0-.413.273.081.081,0,0,0,.016.069c.023.027.093.072.306.077.154,0,.311.206.33.427v.014a.692.692,0,0,0,.2.536Z" transform="translate(-68.476 -81.201)" fill="#e20019"/>
    <path id="Path_84442" data-name="Path 84442" d="M84.571,108.073h.018l.052,0,.027.044c.018.029.034.057.048.082.068.118.086.141.152.144a.18.18,0,0,0,.044-.093.683.683,0,0,0-.111-.539c-.219-.283-.337-.42-.617-.431a.96.96,0,0,0-.641.565.2.2,0,0,0,.108.229,3.132,3.132,0,0,0,.275-.291l.175.1a.432.432,0,0,0-.005.291.19.19,0,0,0,.123.1.319.319,0,0,0,.09.017c.028,0,.032,0,.058-.059a.218.218,0,0,1,.2-.159" transform="translate(-65.346 -83.92)" fill="#e20019"/>
    <path id="Path_84443" data-name="Path 84443" d="M103.9,107.774V109.8a1.922,1.922,0,0,0,.629-.308c-.078-1.007-.3-1.619-.629-1.715" transform="translate(-81.277 -84.304)" fill="#e20019"/>
    <path id="Path_84444" data-name="Path 84444" d="M95.9,115.258a4,4,0,0,0,.707,1.041c.035-.016.142-.086.4-.407a10.162,10.162,0,0,1-1.11-.634" transform="translate(-75.015 -90.158)" fill="#e20019"/>
    <path id="Path_84445" data-name="Path 84445" d="M103.225,117.281a3.86,3.86,0,0,1-1.119.547c-.106.039-.2.073-.232.09a.3.3,0,0,0-.088.217.21.21,0,0,0,.021.127,12.821,12.821,0,0,0,1.791-.674.986.986,0,0,0-.374-.308" transform="translate(-79.62 -91.74)" fill="#e20019"/>
    <path id="Path_84446" data-name="Path 84446" d="M111.83,133.468a4.57,4.57,0,0,1,.048.583.368.368,0,0,0,.24-.177,4.319,4.319,0,0,0,.03-.767,3.689,3.689,0,0,1,.008-.436,1.169,1.169,0,0,1,.048-.159c.054-.158.167-.488.083-.6-.008-.012-.034-.048-.134-.048h-.01c-.126,0-.307.005-.518.005a11.918,11.918,0,0,1-2.071-.131,7.368,7.368,0,0,0-1.539-.242.657.657,0,0,0-.278.037,1.474,1.474,0,0,0-.545.637l-.007.074-.073.024a.236.236,0,0,1-.053.006.167.167,0,0,1-.14-.07c-.062-.087-.051-.241.037-.5.015-.045.035-.1.059-.167a6.556,6.556,0,0,0,.412-1.558c-.437.2-1.35.714-1.59.851a7.506,7.506,0,0,0,.43,1.066c.367.769.574.952.622.957h.02c.157,0,.65-.081,1.22-.175a21.774,21.774,0,0,1,2.706-.343,1.3,1.3,0,0,1,.354.036l.032.01.02.027.06.079a2.042,2.042,0,0,1,.526.982" transform="translate(-82.791 -101.671)" fill="#e20019"/>
    <path id="Path_84447" data-name="Path 84447" d="M82.424,116.377c-.072,0-.183.083-.183.394,0,.035.035.08.052.08s.054-.026.1-.156l.024-.067h2.523a1.916,1.916,0,0,1-.153-.289C84.226,116.343,82.443,116.377,82.424,116.377Z" transform="translate(-64.331 -91.004)" fill="#e20019"/>
    <path id="Path_84448" data-name="Path 84448" d="M88.7,89.508s-1.331.3-1.294-.384c.019-.229.155-.315.285-.291.006-.124-.26-.483.322-.625a3.009,3.009,0,0,0,.427-.674c.056-.173.217-.409.743-.3A2.366,2.366,0,0,1,90.356,88c.309.006.631.056.514.118s-.185.18-.161.2.192.111-.347.124c.019.111.121.143.215.2s-.027.124,0,.149.076.285-.2.179-.291-.2-.365-.186-.272.043-.242.117.3.248-.043.31c-.068.062.106.16-.025.21s-.7.5-.971.607c-.266,0-.353-.074-.328-.185s.142-.192.316-.211c0-.074.018-.132-.025-.124" transform="translate(-68.369 -68.216)" fill="#e20019"/>
    <path id="Path_84449" data-name="Path 84449" d="M76.2,118.572H75.053l-.079-.439H76.2Z" transform="translate(-58.647 -92.406)" fill="#e20019"/>
    <path id="Path_84450" data-name="Path 84450" d="M113.466,117.7h4.255v-.644h-5.1Z" transform="translate(-88.093 -91.561)" fill="#e20019"/>
    <path id="Path_84451" data-name="Path 84451" d="M96.525,120.943l.025.006a14.4,14.4,0,0,1,1.794.4c.22-.108.355-.258.353-.3l-.052-.144.154.011a.782.782,0,0,1,.276.1.811.811,0,0,0,.3.1.169.169,0,0,0,.072-.015,12.666,12.666,0,0,0,1.463-1.051,2.242,2.242,0,0,0-.876-.437,2.558,2.558,0,0,0-.382.148,5.312,5.312,0,0,1-1.862.536,1.2,1.2,0,0,1-.535-.11,1.675,1.675,0,0,0-.63.541c-.1.137-.11.208-.105.221h0" transform="translate(-75.503 -93.561)" fill="#e20019"/>
    <path id="Path_84452" data-name="Path 84452" d="M86.8,124.94a9.106,9.106,0,0,0,1.725.429c.324-.061.385-.376.569-.359s.272.184.578-.009a6.258,6.258,0,0,0,.945-.788c.017.2,0,.753-1.191,1.287s-3.94,1.322-4.01,1.7a1.309,1.309,0,0,0,.683-.193,1.192,1.192,0,0,1,.35,1.077c-.07.6-.525,1.62-.525,1.909s-.026,1.558-.009,1.69.237.858-.114.806a2.291,2.291,0,0,0-.7-.035c-.14.026-.421.254-.666.219s-.666-.158-.648-.28.289-.123.525-.21.394-.351.85-.517c-.017-.307-.152-2.511-.152-2.982a5.509,5.509,0,0,1,.047-1.837c.2-.408,1.255-1.927,1.742-1.906" transform="translate(-65.541 -97.163)" fill="#e20019"/>
    <path id="Path_84453" data-name="Path 84453" d="M87.124,118.908a.829.829,0,0,0,.184.338l-2.643-.169s-.306-.19-.184-.234Z" transform="translate(-66.061 -92.962)" fill="#e20019"/>
    <path id="Path_84454" data-name="Path 84454" d="M59.681,116.556h.543s.175-.075,0-.285-.516-.324-.271-.691c-.254-.044-.63-.122-.569.691h-.263a.652.652,0,0,0-.7-.464,9.1,9.1,0,0,0-2.109.621,16.724,16.724,0,0,0,2.118.464.969.969,0,0,0,.709-.42h.21a1.962,1.962,0,0,0,.2.455c0,.219.008.513.008.513a.363.363,0,0,0-.219.4c.035.306.2.3.254.3s.123-.1.333-.1a.432.432,0,0,0-.166-.56c0-.175-.018-.368-.018-.368s.219-.139.193-.266-.254-.118-.254-.289" transform="translate(-44.049 -90.39)" fill="#e20019"/>
    <path id="Path_84455" data-name="Path 84455" d="M78.4,122.415l.016-.01a.689.689,0,0,0,.244-.369l0-.01v-.01c0-.012-.023-1.206-.023-1.556,0-.4-.671-.657-.7-.668l-.04-.015-.032.029A.734.734,0,0,1,77.5,120a.5.5,0,0,1-.425-.19l-.021-.021h-.029c-.541,0-.8.65-.814.678l0,.023a13,13,0,0,0,0,1.438,1.165,1.165,0,0,0,.239.405c-.108.381-.658,2.445.079,2.7v.3H78.3v-.32c.674-.3.244-2.084.1-2.6m-2.053-1.908c.034-.077.256-.555.65-.577a.629.629,0,0,0,.5.209.79.79,0,0,0,.428-.2c.189.079.57.287.57.52,0,.334.021,1.429.023,1.548a.561.561,0,0,1-.162.265l-.352-.006v-.675h-1.2v.656l-.246,0a1.053,1.053,0,0,1-.213-.352,12.352,12.352,0,0,1,0-1.385m1.272,4.335h-.4a.174.174,0,0,1,0-.348h.4a.174.174,0,0,1,0,.348m.63.045-.87-.973-.8.995v0c-.538-.176-.195-1.831,0-2.52l1.674.026c.191.683.5,2.225,0,2.474" transform="translate(-59.567 -93.693)" fill="#e20019"/>
    <path id="Path_84456" data-name="Path 84456" d="M80.255,126.392h.109v-.109a.109.109,0,0,0-.109-.109H79.27a.109.109,0,0,0-.109.109v.109h1.094Z" transform="translate(-61.922 -98.697)" fill="#e20019"/>
    <path id="Path_84457" data-name="Path 84457" d="M77.172,146.032h-.118v.118a.118.118,0,0,0,.118.118h1.838a.118.118,0,0,0,.118-.118v-.118H77.172Z" transform="translate(-60.274 -114.23)" fill="#e20019"/>
    <path id="Path_84458" data-name="Path 84458" d="M250.274,182.618a1.509,1.509,0,0,1-1.127-.536,3.157,3.157,0,0,1-.633-1.092l-.016-.044.372-.247.026.072c.333.922.806,1.39,1.407,1.39a.753.753,0,0,0,.562-.248.8.8,0,0,0,.238-.577.737.737,0,0,0-.033-.221l-.854.376-.4-.315v-1.224h-1.554v-.418h3.545v.418h-1.535v1l.932-.374.325.3a1.738,1.738,0,0,1,.045.372,1.4,1.4,0,0,1-.336.983,1.247,1.247,0,0,1-.966.382" transform="translate(-194.199 -140.436)" fill="#181617"/>
    <path id="Path_84459" data-name="Path 84459" d="M263.923,182.608v-2.656h-.432v-.418h1.3v.418h-.4v2.656Z" transform="translate(-206.11 -140.436)" fill="#181617"/>
    <path id="Path_84460" data-name="Path 84460" d="M270.108,182.612l-.017-.032a2.552,2.552,0,0,0-.568-.758,1.271,1.271,0,0,0-.815-.377l-.044,0-.131-.49.034-.024c.2-.146.706-.448,1.493-.9v-.079h-1.642v-.418h3.517v.418h-1.408v.065a1.471,1.471,0,0,1,.742.237.821.821,0,0,1,.435.7.69.69,0,0,1-.271.563.916.916,0,0,1-.592.2.44.44,0,0,1-.093-.01l-.048-.01v-.441h.237c.224,0,.324-.1.324-.313,0-.256-.24-.407-.734-.46v2.134Zm-.824-1.493a2.078,2.078,0,0,1,.43.376c.064.076.179.208.346.4v-1.351a1.942,1.942,0,0,0-.394.255Z" transform="translate(-209.964 -140.436)" fill="#181617"/>
    <path id="Path_84461" data-name="Path 84461" d="M289.885,177.607v-2.646h-.367v-.418h.368a1.313,1.313,0,0,1,.479-1.029,1.749,1.749,0,0,1,1.145-.361,2.235,2.235,0,0,1,.893.194,5.557,5.557,0,0,1,.8.451l.054.036-.255.332-.046-.029a2.9,2.9,0,0,0-1.445-.542,1.267,1.267,0,0,0-.82.245.89.89,0,0,0-.328.7h.361v.418h-.363v2.646Z" transform="translate(-226.469 -135.446)" fill="#181617"/>
    <path id="Path_84462" data-name="Path 84462" d="M296.2,182.612l-.017-.029a2.375,2.375,0,0,0-.905-.743,2.675,2.675,0,0,0-1.135-.38H294.1l-.132-.493.032-.024a4.873,4.873,0,0,1,1.059-.534l1.1-.417v-.037h-2.417v-.418h3.236v.418h-.363v2.66Zm-1.44-1.506a5.038,5.038,0,0,1,1.394.8v-1.4c-.32.115-.788.315-1.394.6" transform="translate(-229.77 -140.436)" fill="#181617"/>
    <path id="Path_84463" data-name="Path 84463" d="M309.413,182.593a1.483,1.483,0,0,1-1.1-.53,2.712,2.712,0,0,1-.609-1.081l-.01-.033.3-.316.031.095a2.953,2.953,0,0,0,.495.944,1.117,1.117,0,0,0,.862.489.694.694,0,0,0,.569-.26.912.912,0,0,0,.206-.5,1.171,1.171,0,0,1-.615.188.894.894,0,0,1-.616-.233.761.761,0,0,1-.277-.595.78.78,0,0,1,.2-.56.742.742,0,0,1,.556-.21.687.687,0,0,1,.431.132.466.466,0,0,1,.179.394.53.53,0,0,1-.207.387l-.036.033-.345-.259.078-.045a.158.158,0,0,0,.089-.145c0-.038,0-.109-.154-.109a.314.314,0,0,0-.237.1.331.331,0,0,0-.094.243.387.387,0,0,0,.131.3.461.461,0,0,0,.32.122.921.921,0,0,0,.691-.324l.043-.045.382.4v.024a1.5,1.5,0,0,1-.336.976,1.156,1.156,0,0,1-.93.428m-1.955-3.059h3.46v.418h-3.46Z" transform="translate(-240.502 -140.436)" fill="#181617"/>
    <path id="Path_84464" data-name="Path 84464" d="M322.82,182.608v-2.656h-.43v-.418h1.294v.418h-.4v2.656Z" transform="translate(-252.182 -140.436)" fill="#181617"/>
    <path id="Path_84465" data-name="Path 84465" d="M328.779,182.8a1.139,1.139,0,0,1-.819-.211,1.634,1.634,0,0,1-.448-1.164,1.617,1.617,0,0,1,.257-.84,4.861,4.861,0,0,1,.485-.634h-.965v-.418h1.786v.4l-.038.015a1.759,1.759,0,0,0-.728.571,1.4,1.4,0,0,0-.34.847c0,.681.271,1.012.829,1.012a.4.4,0,0,0,.23-.1l.1-.073v.5l-.032.017a.68.68,0,0,1-.312.071" transform="translate(-256.014 -140.438)" fill="#181617"/>
    <path id="Path_84466" data-name="Path 84466" d="M335.8,182.572v-1.805c0-.013-.01-.073-.14-.282a.9.9,0,0,0-.773-.5.49.49,0,0,0-.322.155l-.028.028a.729.729,0,0,1,.141-.014.791.791,0,0,1,.462.135.5.5,0,0,1,.219.431.957.957,0,0,1-.245.621,1.257,1.257,0,0,1-.558.4l-.041.014-.3-.388.079-.027a1.093,1.093,0,0,0,.395-.259.562.562,0,0,0,.216-.374c0-.049-.089-.1-.239-.14a1.408,1.408,0,0,0-.368-.053.268.268,0,0,0-.1.019l-.05.019-.217-.412.029-.031a3.564,3.564,0,0,1,.39-.38.868.868,0,0,1,.527-.18,1.152,1.152,0,0,1,.928.484v-.5h.844v.418h-.378v2.62Z" transform="translate(-261.207 -140.436)" fill="#181617"/>
    <path id="Path_84467" data-name="Path 84467" d="M346.8,182.688a1.829,1.829,0,0,0-.486-.326l-.055-.028.2-.38.05.021a1.643,1.643,0,0,1,.576.417l.037.041-.282.3Zm.932-.076-.018-.028a2.355,2.355,0,0,0-.882-.739,2.594,2.594,0,0,0-1.113-.365h-.044l-.133-.492.037-.023a10.69,10.69,0,0,1,2.089-.975v-.037h-2.355v-.418h3.137v.418h-.307v2.66Zm-1.4-1.488a4.61,4.61,0,0,1,1.357.783v-1.4a8.7,8.7,0,0,0-1.357.617" transform="translate(-270.111 -140.436)" fill="#181617"/>
    <path id="Path_84468" data-name="Path 84468" d="M365.166,177.607v-2.646H364.8v-.418h.368a1.316,1.316,0,0,1,.479-1.028,1.747,1.747,0,0,1,1.146-.362,2.257,2.257,0,0,1,.894.194,5.67,5.67,0,0,1,.795.451l.054.036-.257.332-.046-.029a2.88,2.88,0,0,0-1.441-.542,1.263,1.263,0,0,0-.821.245.906.906,0,0,0-.33.7H366v.418h-.363v2.646Z" transform="translate(-285.355 -135.446)" fill="#181617"/>
    <path id="Path_84469" data-name="Path 84469" d="M370.961,182.618a1.5,1.5,0,0,1-1.125-.536,3.139,3.139,0,0,1-.633-1.091l-.016-.044.372-.247.026.072c.333.922.806,1.39,1.407,1.39a.752.752,0,0,0,.56-.248.8.8,0,0,0,.239-.577.728.728,0,0,0-.034-.221l-.854.376-.4-.315v-1.224h-1.552v-.418H372.5v.418h-1.534v1l.931-.374.324.3a1.638,1.638,0,0,1,.045.372,1.406,1.406,0,0,1-.335.983,1.252,1.252,0,0,1-.968.382" transform="translate(-288.604 -140.436)" fill="#181617"/>
    <path id="Path_84470" data-name="Path 84470" d="M384.493,177.607v-2.646h-.367v-.418h.368a1.316,1.316,0,0,1,.479-1.028,1.755,1.755,0,0,1,1.147-.362,2.248,2.248,0,0,1,.893.194,5.6,5.6,0,0,1,.795.452l.054.035-.255.332-.046-.029a2.881,2.881,0,0,0-1.443-.542,1.268,1.268,0,0,0-.821.245.891.891,0,0,0-.33.7h.362v.418h-.363v2.646Z" transform="translate(-300.474 -135.446)" fill="#181617"/>
    <path id="Path_84471" data-name="Path 84471" d="M391.387,182.715a1.482,1.482,0,0,1-.253-.857,2.6,2.6,0,0,1,.06-.554q.026-.107.14-.5a1.619,1.619,0,0,1-.676-.264,1.047,1.047,0,0,1-.434-.557.992.992,0,0,0-.456.756c0,.213.1.24.184.24a.506.506,0,0,0,.243-.073.437.437,0,0,0,.18-.165l.017-.031h.422l.018.027a1.119,1.119,0,0,1,.123.6c0,.712-.377,1.073-1.121,1.073a.993.993,0,0,1-.435-.11c-.056-.026-.179-.1-.367-.217a8.552,8.552,0,0,1-.478-.873l-.02-.039.3-.283.03.089a3.055,3.055,0,0,0,.457.805h.029l.239.118a.5.5,0,0,0,.226.064.77.77,0,0,0,.484-.146.515.515,0,0,0,.2-.435.443.443,0,0,0-.042-.189.759.759,0,0,1-.53.234.557.557,0,0,1-.465-.208.769.769,0,0,1-.159-.5,1.376,1.376,0,0,1,.3-.769h-1.281v-.418h3.808v.418H390.7a.659.659,0,0,0,.69.406,1.249,1.249,0,0,0,.151-.009l.032,0,.306.373-.017.035a2.382,2.382,0,0,0-.3.907,1.642,1.642,0,0,0,.152.864l.041.056-.342.181Z" transform="translate(-303.753 -140.436)" fill="#181617"/>
    <path id="Path_84472" data-name="Path 84472" d="M405.063,178.9v-2.656h-.288v-.418h2.1l0-.039a.52.52,0,0,0-.223-.433.786.786,0,0,0-.494-.162,2.352,2.352,0,0,0-1,.34l-.057.031-.149-.351.043-.027a2.3,2.3,0,0,1,1.2-.391,1.153,1.153,0,0,1,.807.309,1.013,1.013,0,0,1,.338.723h.4v.418h-2.208v2.2l.189.008a1.688,1.688,0,0,0,.786-.223c.324-.174.489-.387.489-.632,0-.274-.12-.4-.378-.4a1.114,1.114,0,0,0-.413.172l-.057.031-.184-.412.039-.028a1.26,1.26,0,0,1,.755-.225.646.646,0,0,1,.544.263.94.94,0,0,1,.17.576,1.088,1.088,0,0,1-.449.846,1.986,1.986,0,0,1-.869.408,5.425,5.425,0,0,1-1.035.072Z" transform="translate(-316.626 -136.73)" fill="#181617"/>
    <path id="Path_84473" data-name="Path 84473" d="M417.863,182.608v-2.656h-.43v-.418h1.294v.418h-.4v2.656Z" transform="translate(-326.527 -140.436)" fill="#181617"/>
    <path id="Path_84474" data-name="Path 84474" d="M425.186,182.608v-.06c0-.064,0-.157.013-.278s.012-.208.012-.269c0-.878-.314-.878-.417-.878a.314.314,0,0,0-.25.147.561.561,0,0,0-.117.3l0,.056h-.51l0-.057a.6.6,0,0,0-.116-.325.335.335,0,0,0-.566-.006.6.6,0,0,0-.1.359c0,.295.169.432.532.432.037,0,.076,0,.119,0l.088-.006-.154.467-.038,0a1.36,1.36,0,0,1-.141.01.874.874,0,0,1-.66-.272.943.943,0,0,1-.258-.676.954.954,0,0,1,.247-.677.881.881,0,0,1,.667-.262.8.8,0,0,1,.658.4.813.813,0,0,1,.617-.4.464.464,0,0,1,.382.241v-.9h-2.852v-.418h3.637v.418h-.342v2.656Z" transform="translate(-330.361 -140.436)" fill="#181617"/>
    <path id="Path_84475" data-name="Path 84475" d="M446.116,182.643c-.616,0-.929-.479-.929-1.425a2.449,2.449,0,0,1,.991-1.668l.017-.016h.584v.41l-.051.008a1.228,1.228,0,0,0-.8.5,1.455,1.455,0,0,0-.32.907,1.27,1.27,0,0,0,.118.535c.093.2.215.3.373.3a.451.451,0,0,0,.229-.067l.062-.036.149.418-.044.025a.759.759,0,0,1-.376.1" transform="translate(-348.237 -140.436)" fill="#181617"/>
    <path id="Path_84476" data-name="Path 84476" d="M453.644,182.608v-.06c0-.064,0-.157.013-.278s.012-.208.012-.269c0-.583-.14-.878-.416-.878a.315.315,0,0,0-.251.147.571.571,0,0,0-.115.3l0,.056h-.512l0-.057a.589.589,0,0,0-.116-.325.328.328,0,0,0-.269-.159.342.342,0,0,0-.3.153.628.628,0,0,0-.1.358c0,.295.169.432.531.432.037,0,.078,0,.119,0l.088-.006-.154.467-.038,0a1.393,1.393,0,0,1-.14.01.872.872,0,0,1-.661-.272,1.035,1.035,0,0,1-.011-1.353.885.885,0,0,1,.667-.261.8.8,0,0,1,.658.4.809.809,0,0,1,.618-.4.462.462,0,0,1,.381.241v-.9H450.79v-.418h3.641v.418h-.344v2.656Z" transform="translate(-352.62 -140.436)" fill="#181617"/>
    <path id="Path_84477" data-name="Path 84477" d="M468.794,182.608v-.263a1.153,1.153,0,0,0-.431-.786,1.237,1.237,0,0,0-.81-.416.429.429,0,0,0-.292.11.334.334,0,0,0-.12.262.353.353,0,0,0,.112.27.4.4,0,0,0,.281.107.533.533,0,0,0,.2-.044l.06-.025.141.438-.046.023a1.04,1.04,0,0,1-.458.081.714.714,0,0,1-.552-.253.864.864,0,0,1-.217-.581.841.841,0,0,1,.24-.61.8.8,0,0,1,.6-.249,1.6,1.6,0,0,1,1.289.77v-1.489H466.38v-.418h3.176v.418h-.3v2.656Z" transform="translate(-364.815 -140.436)" fill="#181617"/>
    <path id="Path_84478" data-name="Path 84478" d="M481.432,182.8a1.148,1.148,0,0,1-.819-.211,1.638,1.638,0,0,1-.448-1.164,1.614,1.614,0,0,1,.257-.84,5.036,5.036,0,0,1,.485-.634h-.967v-.418h1.788v.4l-.038.015a1.778,1.778,0,0,0-.731.571,1.413,1.413,0,0,0-.339.847c0,.681.272,1.012.83,1.012a.408.408,0,0,0,.232-.1l.1-.072v.5l-.033.017a.687.687,0,0,1-.314.071" transform="translate(-375.422 -140.438)" fill="#181617"/>
    <path id="Path_84479" data-name="Path 84479" d="M487.416,182.668a2.473,2.473,0,0,1-.2-.751,5.893,5.893,0,0,1,.09-1,5.781,5.781,0,0,0-1.219.821l-.041.034-.344-.328v-1.489h-.268v-.418h2.695v.418h-1.961v1.017a7.479,7.479,0,0,1,1.3-.686l.042-.017.386.5-.013.031a2.856,2.856,0,0,0-.255.97,2.218,2.218,0,0,0,.152.734l.018.051-.363.17Z" transform="translate(-379.722 -140.436)" fill="#181617"/>
    <path id="Path_84480" data-name="Path 84480" d="M499.041,182.608v-.263a1.151,1.151,0,0,0-.431-.786,1.238,1.238,0,0,0-.81-.416.428.428,0,0,0-.292.11.334.334,0,0,0-.12.262.355.355,0,0,0,.112.27.389.389,0,0,0,.28.107.558.558,0,0,0,.206-.045l.06-.024.137.437-.046.023a1.041,1.041,0,0,1-.458.081.706.706,0,0,1-.55-.253.861.861,0,0,1-.22-.581.845.845,0,0,1,.241-.609.8.8,0,0,1,.6-.249,1.606,1.606,0,0,1,1.292.771v-1.49h-2.413v-.418h3.178v.418h-.3v2.656Z" transform="translate(-388.476 -140.436)" fill="#181617"/>
  </g>
</svg>
